<svg width="400" height="300" background-color="red"><g transform="translate(20,280)" fill="none" font-size="10" font-family="sans-serif" text-anchor="middle"><path class="domain" stroke="#000" d="M0.5,6V0.5H360.5V6"></path><g class="tick" opacity="1" transform="translate(38.82352941176471,0)"><line stroke="#000" y2="6" x1="0.5" x2="0.5"></line><text fill="#000" y="9" x="0.5" dy="0.71em">Cow</text></g><g class="tick" opacity="1" transform="translate(109.41176470588235,0)"><line stroke="#000" y2="6" x1="0.5" x2="0.5"></line><text fill="#000" y="9" x="0.5" dy="0.71em">Monkey</text></g><g class="tick" opacity="1" transform="translate(179.99999999999997,0)"><line stroke="#000" y2="6" x1="0.5" x2="0.5"></line><text fill="#000" y="9" x="0.5" dy="0.71em">Giraffe</text></g><g class="tick" opacity="1" transform="translate(250.58823529411762,0)"><line stroke="#000" y2="6" x1="0.5" x2="0.5"></line><text fill="#000" y="9" x="0.5" dy="0.71em">Antelope</text></g><g class="tick" opacity="1" transform="translate(321.17647058823525,0)"><line stroke="#000" y2="6" x1="0.5" x2="0.5"></line><text fill="#000" y="9" x="0.5" dy="0.71em">Cat</text></g></g><g transform="translate(20,20)" fill="none" font-size="10" font-family="sans-serif" text-anchor="end"><path class="domain" stroke="#000" d="M-6,260.5H0.5V0.5H-6"></path><g class="tick" opacity="1" transform="translate(0,260)"><line stroke="#000" x2="-6" y1="0.5" y2="0.5"></line><text fill="#000" x="-9" y="0.5" dy="0.32em">0</text></g><g class="tick" opacity="1" transform="translate(0,239.2)"><line stroke="#000" x2="-6" y1="0.5" y2="0.5"></line><text fill="#000" x="-9" y="0.5" dy="0.32em">2</text></g><g class="tick" opacity="1" transform="translate(0,218.4)"><line stroke="#000" x2="-6" y1="0.5" y2="0.5"></line><text fill="#000" x="-9" y="0.5" dy="0.32em">4</text></g><g class="tick" opacity="1" transform="translate(0,197.6)"><line stroke="#000" x2="-6" y1="0.5" y2="0.5"></line><text fill="#000" x="-9" y="0.5" dy="0.32em">6</text></g><g class="tick" opacity="1" transform="translate(0,176.8)"><line stroke="#000" x2="-6" y1="0.5" y2="0.5"></line><text fill="#000" x="-9" y="0.5" dy="0.32em">8</text></g><g class="tick" opacity="1" transform="translate(0,156)"><line stroke="#000" x2="-6" y1="0.5" y2="0.5"></line><text fill="#000" x="-9" y="0.5" dy="0.32em">10</text></g><g class="tick" opacity="1" transform="translate(0,135.2)"><line stroke="#000" x2="-6" y1="0.5" y2="0.5"></line><text fill="#000" x="-9" y="0.5" dy="0.32em">12</text></g><g class="tick" opacity="1" transform="translate(0,114.39999999999998)"><line stroke="#000" x2="-6" y1="0.5" y2="0.5"></line><text fill="#000" x="-9" y="0.5" dy="0.32em">14</text></g><g class="tick" opacity="1" transform="translate(0,93.6)"><line stroke="#000" x2="-6" y1="0.5" y2="0.5"></line><text fill="#000" x="-9" y="0.5" dy="0.32em">16</text></g><g class="tick" opacity="1" transform="translate(0,72.80000000000001)"><line stroke="#000" x2="-6" y1="0.5" y2="0.5"></line><text fill="#000" x="-9" y="0.5" dy="0.32em">18</text></g><g class="tick" opacity="1" transform="translate(0,52)"><line stroke="#000" x2="-6" y1="0.5" y2="0.5"></line><text fill="#000" x="-9" y="0.5" dy="0.32em">20</text></g><g class="tick" opacity="1" transform="translate(0,31.19999999999999)"><line stroke="#000" x2="-6" y1="0.5" y2="0.5"></line><text fill="#000" x="-9" y="0.5" dy="0.32em">22</text></g><g class="tick" opacity="1" transform="translate(0,10.400000000000006)"><line stroke="#000" x2="-6" y1="0.5" y2="0.5"></line><text fill="#000" x="-9" y="0.5" dy="0.32em">24</text></g></g><rect x="27.058823529411768" y="228" width="63.52941176470588" height="52" fill="steelblue" stroke="black"></rect><rect x="97.6470588235294" y="176" width="63.52941176470588" height="104" fill="steelblue" stroke="black"></rect><rect x="168.23529411764704" y="124" width="63.52941176470588" height="156" fill="steelblue" stroke="black"></rect><rect x="238.8235294117647" y="72" width="63.52941176470588" height="208" fill="steelblue" stroke="black"></rect><rect x="309.4117647058823" y="20" width="63.52941176470588" height="260" fill="steelblue" stroke="black"></rect></svg>
