<?xml version="1.0" ?><!DOCTYPE svg  PUBLIC '-//W3C//DTD SVG 1.1//EN'  'http://www.w3.org/Graphics/SVG/1.1/DTD/svg11.dtd'><svg height="512px" style="shape-rendering:geometricPrecision; text-rendering:geometricPrecision; image-rendering:optimizeQuality; fill-rule:evenodd; clip-rule:evenodd" version="1.1" width="512px" xml:space="preserve" xmlns="http://www.w3.org/2000/svg" xmlns:xlink="http://www.w3.org/1999/xlink"><g id="Слой_x0020_1"><svg height="512px" style="shape-rendering:geometricPrecision; text-rendering:geometricPrecision; image-rendering:optimizeQuality; fill-rule:evenodd; clip-rule:evenodd" version="1.1" viewBox="0 0 512000 512000" width="512px" xml:space="preserve" xmlns="http://www.w3.org/2000/svg" xmlns:xlink="http://www.w3.org/1999/xlink"><defs><style type="text/css">
   <![CDATA[
    .fil0 {fill:#000}
   ]]>
  </style></defs><g id="Слой_x0020_1"><path class="fil0" d="M304130 16224c111984,22353 196371,121188 196371,239746 0,135034 -109468,244501 -244501,244501 -135033,0 -244501,-109467 -244501,-244501 0,-75144 33910,-142356 87252,-187201l-35753 -52143 124073 -669 -41682 120828 -32996 -48122c-47071,40437 -76894,100385 -76894,167307 0,121780 98722,220501 220501,220501 121779,0 220501,-98721 220501,-220501 0,-108735 -78709,-199078 -182258,-217185 -10962,-1916 -22202,-3023 -33657,-3257l0 -611 -1391 0c-6432,0 -11694,-5262 -11694,-11694l0 -1c0,-6433 5262,-11694 11694,-11694l1391 0c15023,0 28229,1639 43544,4696z"/></g></svg><svg height="256px" style="shape-rendering:geometricPrecision; text-rendering:geometricPrecision; image-rendering:optimizeQuality; fill-rule:evenodd; clip-rule:evenodd" version="1.1" viewBox="0 0 512 512" width="256px" x="128" xml:space="preserve" xmlns="http://www.w3.org/2000/svg" xmlns:xlink="http://www.w3.org/1999/xlink" y="128"><defs><style type="text/css">
   <![CDATA[
    .fil1 {fill:#000}
   ]]>
  </style></defs><g id="Layer_x0020_1"><path class="fil1" d="M61 500l0 0c0,0 79,15 124,-85 44,-100 62,-127 72,-148 15,83 39,195 64,214 40,30 95,26 111,-19 16,-45 -3,-77 -3,-77 0,0 5,11 -21,40 -26,29 -76,32 -92,-45 -16,-77 -74,-315 -74,-315 0,0 -33,-76 -107,-54 -74,22 -54,96 -40,113 14,16 30,-4 30,-4 0,0 -16,-62 30,-66 47,-4 76,48 87,123 -11,32 -59,157 -181,323z"/></g></svg></g></svg>